<svg width="14" height="16" viewBox="0 0 14 16" fill="none" xmlns="http://www.w3.org/2000/svg">
  <path d="M11 5.33301C11 4.27214 10.5786 3.25473 9.82843 2.50458C9.07828 1.75444 8.06087 1.33301 7 1.33301C5.93913 1.33301 4.92172 1.75444 4.17157 2.50458C3.42143 3.25473 3 4.27214 3 5.33301C3 9.99967 1 11.333 1 11.333H13C13 11.333 11 9.99967 11 5.33301Z" stroke="primaryColor" stroke-linecap="round" stroke-linejoin="round"/>
  <path d="M8.15335 14C8.03614 14.2021 7.86791 14.3698 7.6655 14.4864C7.46309 14.6029 7.2336 14.6643 7.00001 14.6643C6.76643 14.6643 6.53694 14.6029 6.33453 14.4864C6.13212 14.3698 5.96389 14.2021 5.84668 14" stroke="primaryColor" stroke-linecap="round" stroke-linejoin="round"/>
</svg>
