<svg width="32" height="32" viewBox="0 0 32 32" fill="none" xmlns="http://www.w3.org/2000/svg">
<path d="M3 24.4749C3 19.4829 3 14.4908 3 9.49639C3.01685 9.44103 3.04092 9.38808 3.04814 9.33031C3.34423 7.03166 5.30608 5.17349 7.60976 5.02425C8.0599 4.99778 8.51486 5.02185 8.99148 5.02185C8.99148 4.73783 9.00593 4.50917 8.98908 4.28532C8.93612 3.64747 9.19128 3.21181 9.80511 3C9.93991 3 10.0747 3 10.2119 3C10.8378 3.22144 11.0761 3.67636 11.0256 4.31902C11.0087 4.53564 11.0231 4.75468 11.0231 4.98334C14.3499 4.98334 17.6525 4.98334 20.9793 4.98334C20.9793 4.75227 20.9937 4.53323 20.9769 4.31902C20.9215 3.67395 21.1622 3.22144 21.7881 3C21.9229 3 22.0577 3 22.1949 3C22.8063 3.21422 23.0615 3.64747 23.0109 4.28772C22.9917 4.51879 23.0085 4.75227 23.0085 4.99778C23.3263 4.99778 23.6055 4.99537 23.8847 4.99778C26.2775 5.02907 28.2177 6.48769 28.8243 8.71653C28.8941 8.97408 28.9422 9.23885 29 9.5012C29 14.4932 29 19.4853 29 24.4797C28.9856 24.5255 28.9615 24.5736 28.9543 24.6217C28.6774 26.7038 27.1657 28.3742 25.1196 28.858C24.8909 28.9109 24.6598 28.9519 24.4312 29C18.8128 29 13.192 29 7.57365 29C7.52551 28.9856 7.47977 28.9615 7.43163 28.9567C5.29886 28.6871 3.60661 27.1611 3.12517 25.0742C3.07703 24.8697 3.04092 24.6723 3 24.4749ZM5.03166 13.025C5.03166 13.1381 5.03166 13.2224 5.03166 13.3066C5.03166 16.8352 5.03166 20.3638 5.03166 23.89C5.03166 25.6447 6.33395 26.9565 8.0936 26.9565C13.3653 26.9613 18.6371 26.9613 23.9088 26.9565C25.6685 26.9541 26.9659 25.6423 26.9659 23.8852C26.9683 20.3566 26.9659 16.828 26.9659 13.3018C26.9659 13.2127 26.9659 13.1237 26.9659 13.025C19.6433 13.025 12.3519 13.025 5.03166 13.025ZM5.04851 10.967C12.3591 10.967 19.6553 10.967 26.9491 10.967C27.2885 7.80189 25.045 6.7332 23.0061 7.07499C23.0061 7.71524 23.0109 8.3579 23.0037 9.00056C22.9989 9.55416 22.5969 9.9826 22.0697 10.0163C21.4655 10.0548 20.9865 9.61915 20.9769 9.00778C20.9672 8.3579 20.9744 7.70802 20.9744 7.0437C17.6477 7.0437 14.3427 7.0437 11.0183 7.0437C11.0183 7.15201 11.0183 7.24107 11.0183 7.33253C11.0183 7.89095 11.0256 8.44936 11.0159 9.00778C11.0063 9.59026 10.5634 10.0211 9.99769 10.0187C9.432 10.0163 8.9987 9.58304 8.98908 8.99815C8.98426 8.70209 8.98908 8.40604 8.98908 8.10998C8.98908 7.75856 8.98908 7.40474 8.98908 7.05573C6.57948 6.74764 4.73317 8.09313 5.04851 10.967Z" fill="primaryColor"/>
<path d="M10.0096 22.0021C10.337 22.0021 10.6643 21.9974 10.9917 22.0021C11.5627 22.0139 12.0024 22.4509 12 22.999C11.9976 23.5352 11.5675 23.9793 11.0108 23.9911C10.3394 24.003 9.66795 24.003 8.99892 23.9911C8.43263 23.9817 7.99059 23.521 8.00015 22.9824C8.0121 22.4438 8.44458 22.0163 9.0037 22.0045C9.33821 21.9974 9.67511 22.0021 10.0096 22.0021Z" fill="primaryColor"/>
<path d="M22.0049 22.0021C22.3322 22.0021 22.6595 21.9974 22.9869 22.0021C23.558 22.0139 24 22.4513 24 22.9975C24 23.5413 23.558 23.9858 22.9869 23.9929C22.325 24.0024 21.6608 24.0024 20.9989 23.9929C20.4302 23.9834 19.9906 23.5295 20.0002 22.9857C20.0097 22.4442 20.4398 22.0163 20.9989 22.0045C21.3334 21.9974 21.6703 22.0021 22.0049 22.0021Z" fill="primaryColor"/>
<path d="M21.9892 17.9974C21.6617 17.9974 21.3341 18.0045 21.0066 17.9951C20.4352 17.9809 19.9953 17.5414 20 16.9955C20.0048 16.4472 20.4447 16.0124 21.0162 16.0053C21.6713 15.9982 22.3264 15.9982 22.9791 16.0053C23.5505 16.01 23.9952 16.4449 24 16.9907C24.0047 17.5343 23.5648 17.9809 22.9934 17.9927C22.6611 18.0045 22.324 17.9974 21.9892 17.9974Z" fill="primaryColor"/>
<path d="M9.98805 17.9974C9.6607 17.9974 9.33335 18.0045 9.00599 17.9951C8.43731 17.9809 7.99526 17.5366 8.00004 16.9931C8.00482 16.4472 8.44925 16.01 9.02033 16.0053C9.67504 15.9982 10.3297 15.9982 10.9821 16.0053C11.5555 16.01 11.9952 16.4449 12 16.9931C12.0047 17.539 11.5651 17.9809 10.9964 17.9951C10.6595 18.0045 10.325 17.9974 9.98805 17.9974Z" fill="primaryColor"/>
<path d="M15.9904 17.9974C15.6627 17.9974 15.3349 18.0045 15.0072 17.9951C14.4378 17.9809 13.9953 17.5366 14 16.9931C14.0048 16.4449 14.4474 16.01 15.0192 16.0053C15.6746 15.9982 16.3301 15.9982 16.9832 16.0053C17.5598 16.01 17.9952 16.4425 18 16.9931C18.0047 17.5414 17.5693 17.9809 16.9976 17.9951C16.6627 18.0045 16.3277 17.9974 15.9904 17.9974Z" fill="primaryColor"/>
<path d="M16.0251 22.0025C16.3526 22.0025 16.6802 21.9955 17.0077 22.0049C17.5672 22.0167 17.9952 22.4462 18 22.9889C18.0047 23.5269 17.5792 23.9776 17.0245 23.9894C16.3455 24.0035 15.6641 24.0035 14.9851 23.9894C14.4328 23.9776 13.9976 23.5245 14 22.9936C14.0024 22.4556 14.4375 22.0191 14.9922 22.0073C15.3365 21.9978 15.6808 22.0025 16.0251 22.0025Z" fill="primaryColor"/>
</svg>
