<svg width="15" height="16" viewBox="0 0 15 16" fill="none" xmlns="http://www.w3.org/2000/svg">
  <path d="M0.217984 15.9961C0.0379024 15.8943 -0.0129902 15.7377 0.00266904 15.5381C0.139687 13.7216 0.953968 12.3318 2.61385 11.5175C3.1306 11.2631 3.70608 11.1182 4.25807 10.9381C4.40683 10.8873 4.5047 10.8168 4.56734 10.6719C4.70044 10.3783 4.85312 10.0926 4.97448 9.84592C4.76308 9.51707 4.56734 9.2078 4.36768 8.91028C4.34028 8.87113 4.26981 8.85155 4.21501 8.84373C4.03884 8.80849 3.84701 8.81632 3.68259 8.74977C3.32243 8.60101 3.14626 8.30348 3.12669 7.91592C3.11886 7.79064 3.12669 7.66537 3.12669 7.54009C2.66083 7.33652 2.48466 6.97636 2.4964 6.48701C2.51598 5.7432 2.48074 4.99547 2.53164 4.25557C2.61385 3.08895 3.11103 2.09068 3.96054 1.28814C5.00188 0.309437 6.24679 -0.117277 7.66787 0.027571C8.96367 0.15676 10.0246 0.747896 10.8428 1.75792C11.5592 2.64266 11.8841 3.66443 11.8763 4.79973C11.8724 5.38303 11.8763 5.96634 11.8763 6.54965C11.8763 7.20733 11.4926 7.59099 10.8428 7.59099C10.694 7.59099 10.5413 7.59099 10.3652 7.59099C10.2751 8.43658 9.97761 9.18431 9.37473 9.79894C9.54698 10.1434 9.7114 10.4801 9.88365 10.809C9.90714 10.8559 9.97761 10.8873 10.0324 10.9068C10.4787 11.0595 10.9328 11.2004 11.3791 11.3609C12.6906 11.8268 13.5479 12.7546 14.0608 14.023C14.2565 14.5085 14.3465 15.0213 14.3779 15.542C14.3896 15.7416 14.3387 15.8982 14.1586 16C9.51566 15.9961 4.86878 15.9961 0.217984 15.9961ZM9.98544 5.31257C9.89931 5.29691 9.83276 5.28516 9.77012 5.27342C9.50783 5.22644 9.24554 5.19121 8.98716 5.12857C8.05935 4.90543 7.24116 4.46697 6.52866 3.82494C6.4856 3.78579 6.41122 3.75056 6.35249 3.75447C5.94927 3.7897 5.58519 3.93455 5.26026 4.16944C4.9275 4.40824 4.70827 4.74883 4.47338 5.06985C4.43032 5.12857 4.399 5.22252 4.40683 5.29691C4.46555 5.982 4.52819 6.66709 4.60649 7.34827C4.63781 7.63405 4.70436 7.91983 4.75525 8.20953C5.04103 8.20953 5.30332 8.20561 5.5617 8.20953C5.64391 8.20953 5.68698 8.18604 5.72612 8.10774C5.89837 7.76715 6.18807 7.5949 6.56781 7.58316C6.77529 7.57924 6.98278 7.57533 7.19418 7.58316C7.72659 7.59882 8.12982 8.00987 8.1259 8.52271C8.1259 9.03555 7.71876 9.43878 7.18635 9.45444C6.99844 9.45835 6.81053 9.45444 6.62261 9.45444C6.21156 9.45444 5.90229 9.28218 5.71438 8.91028C5.69872 8.87896 5.66349 8.8359 5.63217 8.83198C5.44426 8.82415 5.25635 8.82807 5.04495 8.82807C5.33464 9.29784 5.69089 9.65018 6.1685 9.85766C7.65613 10.5153 9.20248 9.66584 9.61353 8.13514C9.75446 7.61447 9.80144 7.07032 9.87191 6.53399C9.93063 6.14251 9.9502 5.73145 9.98544 5.31257ZM4.5047 11.5097C4.09756 11.6467 3.72565 11.7798 3.34983 11.8934C2.36721 12.1948 1.65081 12.8173 1.14971 13.6981C0.860013 14.2109 0.687762 14.7629 0.644699 15.3619C2.63734 15.3619 4.61823 15.3619 6.64219 15.3619C5.79659 14.1326 4.97056 12.9308 4.5047 11.5097ZM7.75791 15.3619C9.76621 15.3619 11.7471 15.3619 13.7397 15.3619C13.7241 15.2327 13.7123 15.1113 13.6888 14.9939C13.4226 13.6746 12.7375 12.6568 11.5005 12.0813C11.0229 11.8581 10.5022 11.725 10.0011 11.5528C9.96586 11.541 9.9228 11.5332 9.92672 11.5332C9.59396 12.2026 9.30426 12.8721 8.9441 13.5024C8.58785 14.1366 8.16505 14.7316 7.75791 15.3619ZM9.98544 4.67054C9.98935 4.65879 9.99718 4.65096 10.0011 4.63922C10.1146 3.55873 9.42953 2.45475 8.4156 2.05153C7.92625 1.85579 7.41732 1.85579 6.9084 1.87145C5.91012 1.89885 5.16239 2.35688 4.67695 3.22597C4.52819 3.49218 4.43032 3.77796 4.41075 4.09115C4.43032 4.09115 4.43815 4.09506 4.44207 4.09115C4.46555 4.07157 4.48904 4.04808 4.50862 4.02459C5.00971 3.48826 5.63217 3.20248 6.36032 3.12419C6.57955 3.1007 6.74789 3.15942 6.9084 3.3121C7.76965 4.13029 8.81099 4.55309 9.98544 4.67054ZM11.2225 4.36127C11.1403 2.52914 9.54306 0.630452 7.20592 0.622622C4.87269 0.610878 3.24805 2.48607 3.15409 4.36127C3.34983 4.36127 3.54557 4.36127 3.74523 4.36127C3.74914 4.30254 3.75306 4.25165 3.76089 4.20076C3.89791 2.87364 4.57908 1.94974 5.81616 1.44473C6.41513 1.1981 7.05324 1.21767 7.67961 1.25682C9.01848 1.33512 10.1616 2.27859 10.5061 3.57048C10.5727 3.82885 10.604 4.09506 10.6549 4.36127C10.8428 4.36127 11.0346 4.36127 11.2225 4.36127ZM7.17069 12.1713C7.1472 12.187 7.13154 12.1909 7.12371 12.2026C6.78704 12.5589 6.45428 12.9151 6.11369 13.2675C6.03931 13.3458 6.07846 13.3927 6.12152 13.4554C6.45819 13.9682 6.79487 14.4811 7.13154 14.9939C7.15111 15.0213 7.1746 15.0448 7.19418 15.0683C7.51519 14.5868 7.83229 14.117 8.14156 13.6433C8.34122 13.3379 8.3373 13.334 8.07501 13.0756C7.77357 12.7742 7.47213 12.4728 7.17069 12.1713ZM8.65832 12.735C8.65832 12.735 8.66615 12.7311 8.67006 12.7233C8.88929 12.2183 9.10852 11.7133 9.32383 11.2083C9.33558 11.1809 9.34732 11.1417 9.33558 11.1182C9.20248 10.8481 9.06546 10.578 8.92452 10.2922C8.47041 10.7737 8.03195 11.2357 7.60915 11.6859C7.96931 12.0421 8.31381 12.3866 8.65832 12.735ZM5.70655 12.7899C6.06671 12.4062 6.39164 12.0656 6.68525 11.7563C6.23896 11.3101 5.80833 10.8794 5.37771 10.4488C5.28375 10.6406 5.17414 10.852 5.06844 11.0673C5.04886 11.1065 5.03712 11.1613 5.05278 11.1965C5.26026 11.7133 5.47558 12.23 5.70655 12.7899ZM3.90182 6.9607C3.85093 6.2991 3.80004 5.65315 3.74523 5.0033C3.53774 5.0033 3.33417 5.0033 3.12277 5.0033C3.12277 5.55528 3.11886 6.09553 3.12277 6.63577C3.12669 6.8276 3.24413 6.94896 3.43204 6.9607C3.58864 6.96853 3.74131 6.9607 3.90182 6.9607ZM10.6314 4.99938C10.5805 5.65707 10.5296 6.30301 10.4748 6.96462C10.6079 6.96462 10.7371 6.96462 10.8663 6.96462C11.1364 6.9607 11.2538 6.84717 11.2538 6.57313C11.2538 6.09161 11.2538 5.60618 11.2538 5.12465C11.2538 5.08551 11.246 5.04636 11.2421 5.0033C11.0385 4.99938 10.8389 4.99938 10.6314 4.99938ZM6.86142 8.8359C6.97103 8.8359 7.08065 8.84373 7.19026 8.8359C7.37034 8.82415 7.49953 8.69105 7.49953 8.52663C7.49953 8.3622 7.37034 8.22519 7.19026 8.21736C6.98278 8.20953 6.77529 8.20953 6.56389 8.21736C6.38381 8.22519 6.25462 8.3622 6.25462 8.52663C6.25462 8.69105 6.38381 8.82415 6.56389 8.8359C6.66568 8.84373 6.76355 8.8359 6.86142 8.8359ZM7.16677 11.2435C7.3312 11.0713 7.49953 10.8912 7.68744 10.6915C7.29596 10.6915 6.93971 10.6915 6.61479 10.6915C6.78312 10.8559 6.97103 11.0438 7.16677 11.2435ZM3.76872 7.5949C3.70608 7.93549 3.77263 8.24084 4.11322 8.19387C4.09756 8.096 4.07799 8.00204 4.06233 7.90417C4.04275 7.80239 4.02318 7.7006 4.00752 7.59882C3.9214 7.5949 3.8431 7.5949 3.76872 7.5949Z" fill="primaryColor"/>
</svg>
