<svg width="26" height="23" viewBox="0 0 26 23" fill="none" xmlns="http://www.w3.org/2000/svg">
<path d="M14.0747 4.48965C15.5719 4.73823 17.0065 5.35222 18.0897 6.26949C18.1162 6.29186 18.1451 6.31672 18.1715 6.33909C20.4077 8.29542 20.5931 11.2138 18.665 13.62C17.3002 15.3228 15.4925 16.2674 13.4441 16.7074C9.58312 17.5352 5.98696 16.8914 2.79759 14.408C1.44 13.3516 0.460323 11.9769 0.123333 10.217C-0.273834 8.14379 0.313491 6.29434 1.52184 4.65371C3.07922 2.53828 5.21429 1.28543 7.65987 0.641608C10.6302 -0.141422 13.5764 -0.240855 16.554 0.527261C19.5364 1.29538 22.1721 2.70235 24.1435 5.21302C25.3302 6.7219 26.0716 8.42469 25.9945 10.4233C25.9368 11.9173 25.335 13.2099 24.5262 14.4056C23.9774 15.2159 23.354 15.9716 22.8124 16.7845C22.4561 17.3164 22.1336 17.8882 21.8905 18.4823C21.657 19.054 21.7629 19.6382 22.1721 20.1279C22.4922 20.5082 22.8196 20.8786 23.1494 21.249C23.5513 21.7039 23.5682 22.2185 23.1879 22.6386C22.7811 23.091 22.266 23.1357 21.8183 22.6758C21.267 22.1116 20.7182 21.5274 20.2561 20.8861C19.5604 19.9216 19.4521 18.8104 19.972 17.749C20.4222 16.8292 21.0263 15.989 21.5872 15.1314C22.1601 14.2589 22.822 13.4435 23.3395 12.5362C24.3144 10.831 24.2614 9.0884 23.2721 7.39307C22.1119 5.40194 20.3596 4.14163 18.3424 3.22685C15.1892 1.79502 11.386 1.54644 8.08833 2.56563C7.41435 2.77443 6.75481 3.03793 6.12175 3.3586C4.8436 4.00491 3.64728 4.89483 2.85295 6.11288C2.05862 7.33093 1.70719 8.90693 2.14286 10.3064C2.55447 11.6339 3.60636 12.6531 4.75213 13.3864C7.75134 15.3054 11.6845 15.5689 14.8979 14.065C15.8824 13.6051 16.8236 12.9663 17.4254 12.0415C18.0295 11.1168 18.2389 9.86646 17.7551 8.86716C17.447 8.23576 16.8982 7.76097 16.3133 7.39556C14.5537 6.29683 12.3176 6.05073 10.375 6.74179C9.40018 7.08732 8.44217 7.72866 8.0787 8.72547C8.00167 8.93676 7.95112 9.16794 7.98482 9.39167C8.05704 9.86148 8.46865 10.1971 8.89229 10.3885C9.56627 10.6917 10.3438 10.7415 11.0514 10.5302C11.386 10.4307 11.723 10.2567 11.9083 9.95346C12.0841 9.6651 12.1033 9.28975 12.3103 9.02377C12.5944 8.66084 13.1769 8.64841 13.5331 8.93925C13.887 9.23009 14.0193 9.74714 13.9375 10.207C13.8557 10.6669 13.5885 11.0721 13.2708 11.4052C12.1755 12.5437 10.4473 12.8793 8.93802 12.4964C7.73208 12.1907 6.56706 11.3778 6.17952 10.1598C5.81365 9.00637 6.22044 7.69883 6.97626 6.76913C7.49619 6.1278 8.16295 5.71515 8.85378 5.30748C10.3486 4.42253 12.2574 4.18638 14.0747 4.48965Z" fill="primaryColor"/>
</svg>
