<svg width="30" height="25" viewBox="0 0 30 25" fill="none" xmlns="http://www.w3.org/2000/svg">
<path d="M22.2071 2.58765C20.103 2.58765 18.3872 4.30346 18.3872 6.40758C18.3872 8.51171 20.103 10.2275 22.2071 10.2275C24.3113 10.2275 26.0271 8.51171 26.0271 6.40758C26.0271 4.30346 24.3113 2.58765 22.2071 2.58765Z" stroke="primaryColor" stroke-width="2"/>
<path d="M11.6364 1C8.90998 1 6.68848 3.22149 6.68848 5.94791C6.68848 8.67433 8.90998 10.8958 11.6364 10.8958C14.3628 10.8958 16.5843 8.67433 16.5843 5.94791C16.5843 3.22149 14.3628 1 11.6364 1Z" stroke="primaryColor" stroke-width="2"/>
<path d="M17.5806 12.8706C18.7985 12.024 19.4246 11.6652 21.3587 11.6652C23.2927 11.6652 25.0287 12.2084 26.2466 13.055C27.4645 13.9017 28.1265 14.9989 28.1265 16.1127V19.2638C28.1265 19.8161 27.6788 20.2638 27.1265 20.2638H22.125" stroke="primaryColor" stroke-width="2"/>
<path d="M19.1666 13.4273L19.1666 13.4273C17.2451 12.2981 14.5818 11.61 11.6735 11.61C8.76521 11.61 6.10187 12.2981 4.18043 13.4273L4.18042 13.4273C2.28824 14.5393 1 16.1354 1 17.9841V22C1 23.1046 1.89543 24 3 24H20.347C21.4516 24 22.347 23.1046 22.347 22V17.9841C22.347 16.1354 21.0588 14.5393 19.1666 13.4273Z" stroke="primaryColor" stroke-width="2"/>
</svg>
