<svg width="12" height="16" viewBox="0 0 12 16" fill="none" xmlns="http://www.w3.org/2000/svg">
  <path d="M1.715 5.71317C1.715 5.6466 1.715 5.57527 1.715 5.50394C1.72451 4.7954 1.69122 4.08687 1.75304 3.38309C1.90046 1.77581 3.19864 0.377762 4.79166 0.092446C5.96621 -0.116786 7.09321 0.00209566 8.09181 0.729651C9.12846 1.48574 9.66581 2.51763 9.69909 3.80155C9.71336 4.37219 9.70385 4.94282 9.70385 5.51345C9.70385 5.57527 9.70385 5.64184 9.70385 5.71793C10.1366 5.7417 10.517 5.87009 10.8356 6.15541C11.2065 6.49303 11.411 6.9115 11.411 7.4108C11.4157 9.2178 11.4253 11.0248 11.411 12.8318C11.392 14.5389 9.95112 15.975 8.24398 15.9893C6.55586 16.0036 4.86774 16.0036 3.17962 15.9893C1.45346 15.975 0.0173714 14.5294 0.00786086 12.8033C-0.00640494 11.0296 0.0031053 9.2606 0.0031053 7.48689C0.0031053 6.51206 0.664087 5.80352 1.64367 5.72268C1.66269 5.72268 1.67696 5.71793 1.715 5.71317ZM5.70467 6.86395C4.40173 6.86395 3.09878 6.86395 1.8006 6.86395C1.36311 6.86395 1.14437 7.08269 1.14437 7.52493C1.14437 9.25109 1.14437 10.9725 1.14437 12.6987C1.14437 13.9255 2.07165 14.8528 3.2985 14.8575C4.90578 14.8575 6.50831 14.8575 8.11559 14.8575C9.35671 14.8575 10.2792 13.9303 10.2792 12.6891C10.2792 10.9725 10.2792 9.25109 10.2792 7.53444C10.2792 7.08269 10.0605 6.86395 9.6135 6.86395C8.3058 6.86395 7.00761 6.86395 5.70467 6.86395ZM8.56259 5.71793C8.56259 5.07596 8.57685 4.44827 8.55783 3.82533C8.52454 2.75064 8.02524 1.95175 7.07419 1.44294C6.54635 1.16238 5.97096 1.13385 5.39082 1.16238C4.14494 1.21469 3.01794 2.20854 2.89906 3.44491C2.82773 4.18673 2.87053 4.93806 2.86102 5.6894C2.86102 5.69891 2.87529 5.70842 2.88004 5.71793C4.76788 5.71793 6.65572 5.71793 8.56259 5.71793Z" fill="primaryColor"/>
  <path d="M5.13874 11.7046C5.13874 11.4193 5.13399 11.1339 5.13874 10.8486C5.13874 10.7535 5.11497 10.6917 5.02937 10.6299C4.6014 10.3065 4.45398 9.77869 4.64419 9.29365C4.8344 8.81337 5.31469 8.52806 5.84252 8.58036C6.33707 8.62792 6.75078 9.01785 6.83162 9.53617C6.89819 9.9689 6.75078 10.3351 6.4084 10.6061C6.30854 10.6869 6.27525 10.763 6.27525 10.8867C6.28001 11.4288 6.28001 11.9661 6.28001 12.5082C6.28001 12.8839 6.04224 13.1454 5.70937 13.1454C5.37175 13.1454 5.1435 12.8839 5.13874 12.5082C5.13874 12.2372 5.13874 11.9709 5.13874 11.7046Z" fill="primaryColor"/>
</svg>
