<svg width="32" height="20" viewBox="0 0 32 20" fill="none" xmlns="http://www.w3.org/2000/svg">
<mask id="path-1-inside-1_4214_12178" fill="white">
<path d="M7.51861 12.5733C6.83694 12.5733 6.15343 12.5788 5.47176 12.5714C4.59533 12.5641 3.98164 11.9669 3.96143 11.0942C3.94857 10.554 3.94857 10.0119 3.96143 9.46991C3.98164 8.60082 4.59533 7.98713 5.46992 7.98162C6.84613 7.97243 8.22417 7.97243 9.60037 7.98162C10.4823 7.98713 11.0868 8.59163 11.1015 9.46623C11.1125 10.0193 11.1125 10.5723 11.0997 11.1254C11.0795 11.9651 10.4786 12.5586 9.63896 12.5696C8.93156 12.5806 8.226 12.5733 7.51861 12.5733ZM7.54985 11.4157C8.20947 11.4157 8.86725 11.4139 9.52687 11.4157C9.79697 11.4175 9.94764 11.3036 9.9458 11.017C9.94212 10.5227 9.94396 10.0285 9.9458 9.53421C9.9458 9.26963 9.81902 9.15571 9.5526 9.15571C8.21131 9.16122 6.87001 9.16122 5.52688 9.15571C5.23658 9.15387 5.12633 9.28249 5.13184 9.56177C5.14103 10.0321 5.14471 10.5044 5.13001 10.9747C5.12082 11.2963 5.25862 11.4212 5.57098 11.4175C6.23244 11.4102 6.89206 11.4157 7.54985 11.4157Z"/>
</mask>
<path d="M7.51861 12.5733C6.83694 12.5733 6.15343 12.5788 5.47176 12.5714C4.59533 12.5641 3.98164 11.9669 3.96143 11.0942C3.94857 10.554 3.94857 10.0119 3.96143 9.46991C3.98164 8.60082 4.59533 7.98713 5.46992 7.98162C6.84613 7.97243 8.22417 7.97243 9.60037 7.98162C10.4823 7.98713 11.0868 8.59163 11.1015 9.46623C11.1125 10.0193 11.1125 10.5723 11.0997 11.1254C11.0795 11.9651 10.4786 12.5586 9.63896 12.5696C8.93156 12.5806 8.226 12.5733 7.51861 12.5733ZM7.54985 11.4157C8.20947 11.4157 8.86725 11.4139 9.52687 11.4157C9.79697 11.4175 9.94764 11.3036 9.9458 11.017C9.94212 10.5227 9.94396 10.0285 9.9458 9.53421C9.9458 9.26963 9.81902 9.15571 9.5526 9.15571C8.21131 9.16122 6.87001 9.16122 5.52688 9.15571C5.23658 9.15387 5.12633 9.28249 5.13184 9.56177C5.14103 10.0321 5.14471 10.5044 5.13001 10.9747C5.12082 11.2963 5.25862 11.4212 5.57098 11.4175C6.23244 11.4102 6.89206 11.4157 7.54985 11.4157Z" fill="primaryColor" stroke="primaryColor" stroke-width="4" mask="url(#path-1-inside-1_4214_12178)"/>
<mask id="path-2-inside-2_4214_12178" fill="white">
<path d="M19.2117 15.6067C18.6825 15.6067 18.1515 15.6104 17.6223 15.6048C17.2163 15.6012 16.9609 15.3733 16.9572 15.0297C16.9535 14.688 17.2052 14.4491 17.6113 14.4455C18.6825 14.4381 19.7555 14.4381 20.8267 14.4455C21.2328 14.4491 21.4827 14.6898 21.4735 15.0353C21.4661 15.3788 21.2107 15.5993 20.8028 15.6048C20.2718 15.6104 19.7427 15.6067 19.2117 15.6067Z"/>
</mask>
<path d="M19.2117 15.6067C18.6825 15.6067 18.1515 15.6104 17.6223 15.6048C17.2163 15.6012 16.9609 15.3733 16.9572 15.0297C16.9535 14.688 17.2052 14.4491 17.6113 14.4455C18.6825 14.4381 19.7555 14.4381 20.8267 14.4455C21.2328 14.4491 21.4827 14.6898 21.4735 15.0353C21.4661 15.3788 21.2107 15.5993 20.8028 15.6048C20.2718 15.6104 19.7427 15.6067 19.2117 15.6067Z" fill="primaryColor" stroke="primaryColor" stroke-width="4" mask="url(#path-2-inside-2_4214_12178)"/>
<mask id="path-3-inside-3_4214_12178" fill="white">
<path d="M25.5966 15.6067C25.0785 15.6067 24.5604 15.6086 24.0422 15.6067C23.6086 15.603 23.3403 15.3862 23.3293 15.039C23.3183 14.677 23.5884 14.4473 24.0477 14.4455C25.084 14.4418 26.1203 14.44 27.1566 14.4455C27.6012 14.4473 27.8456 14.6641 27.8419 15.0279C27.8401 15.3918 27.592 15.603 27.1492 15.6067C26.6329 15.6086 26.1148 15.6067 25.5966 15.6067Z"/>
</mask>
<path d="M25.5966 15.6067C25.0785 15.6067 24.5604 15.6086 24.0422 15.6067C23.6086 15.603 23.3403 15.3862 23.3293 15.039C23.3183 14.677 23.5884 14.4473 24.0477 14.4455C25.084 14.4418 26.1203 14.44 27.1566 14.4455C27.6012 14.4473 27.8456 14.6641 27.8419 15.0279C27.8401 15.3918 27.592 15.603 27.1492 15.6067C26.6329 15.6086 26.1148 15.6067 25.5966 15.6067Z" fill="primaryColor" stroke="primaryColor" stroke-width="4" mask="url(#path-3-inside-3_4214_12178)"/>
<mask id="path-4-inside-4_4214_12178" fill="white">
<path d="M12.8268 14.4418C13.3449 14.4418 13.8631 14.4382 14.3812 14.4437C14.8424 14.4473 15.1107 14.6752 15.1015 15.0371C15.0923 15.3844 14.8222 15.6049 14.3904 15.6067C13.3541 15.6104 12.3178 15.6104 11.2815 15.6067C10.8387 15.6049 10.5907 15.3936 10.587 15.0298C10.5833 14.6678 10.8296 14.451 11.2724 14.4455C11.7905 14.4363 12.3086 14.4418 12.8268 14.4418Z"/>
</mask>
<path d="M12.8268 14.4418C13.3449 14.4418 13.8631 14.4382 14.3812 14.4437C14.8424 14.4473 15.1107 14.6752 15.1015 15.0371C15.0923 15.3844 14.8222 15.6049 14.3904 15.6067C13.3541 15.6104 12.3178 15.6104 11.2815 15.6067C10.8387 15.6049 10.5907 15.3936 10.587 15.0298C10.5833 14.6678 10.8296 14.451 11.2724 14.4455C11.7905 14.4363 12.3086 14.4418 12.8268 14.4418Z" fill="primaryColor" stroke="primaryColor" stroke-width="4" mask="url(#path-4-inside-4_4214_12178)"/>
<mask id="path-5-inside-5_4214_12178" fill="white">
<path d="M6.46397 15.6067C5.9348 15.6067 5.4038 15.6104 4.87463 15.6048C4.45938 15.6012 4.21868 15.3862 4.21317 15.0334C4.20766 14.677 4.44101 14.4491 4.85625 14.4455C5.92745 14.4381 6.99865 14.4381 8.06984 14.4455C8.47591 14.4491 8.72579 14.688 8.72028 15.0316C8.71477 15.3715 8.4557 15.6012 8.05331 15.6048C7.52414 15.6104 6.99497 15.6067 6.46397 15.6067Z"/>
</mask>
<path d="M6.46397 15.6067C5.9348 15.6067 5.4038 15.6104 4.87463 15.6048C4.45938 15.6012 4.21868 15.3862 4.21317 15.0334C4.20766 14.677 4.44101 14.4491 4.85625 14.4455C5.92745 14.4381 6.99865 14.4381 8.06984 14.4455C8.47591 14.4491 8.72579 14.688 8.72028 15.0316C8.71477 15.3715 8.4557 15.6012 8.05331 15.6048C7.52414 15.6104 6.99497 15.6067 6.46397 15.6067Z" fill="primaryColor" stroke="primaryColor" stroke-width="4" mask="url(#path-5-inside-5_4214_12178)"/>
<mask id="path-6-inside-6_4214_12178" fill="white">
<path d="M29.1998 19.8438H2.80018C1.25677 19.8438 0 18.587 0 17.0436V2.80018C0 1.25677 1.25677 0 2.80018 0H29.1998C30.7432 0 31.9999 1.25677 31.9999 2.80018V17.0436C31.9999 18.587 30.7432 19.8438 29.1998 19.8438ZM2.80018 1.41295C2.03583 1.41295 1.41295 2.03583 1.41295 2.80018V17.0436C1.41295 17.808 2.03583 18.4308 2.80018 18.4308H29.1998C29.9641 18.4308 30.587 17.808 30.587 17.0436V2.80018C30.587 2.03583 29.9641 1.41295 29.1998 1.41295H2.80018V1.41295Z"/>
</mask>
<path d="M29.1998 19.8438H2.80018C1.25677 19.8438 0 18.587 0 17.0436V2.80018C0 1.25677 1.25677 0 2.80018 0H29.1998C30.7432 0 31.9999 1.25677 31.9999 2.80018V17.0436C31.9999 18.587 30.7432 19.8438 29.1998 19.8438ZM2.80018 1.41295C2.03583 1.41295 1.41295 2.03583 1.41295 2.80018V17.0436C1.41295 17.808 2.03583 18.4308 2.80018 18.4308H29.1998C29.9641 18.4308 30.587 17.808 30.587 17.0436V2.80018C30.587 2.03583 29.9641 1.41295 29.1998 1.41295H2.80018V1.41295Z" fill="primaryColor" stroke="primaryColor" stroke-width="4" mask="url(#path-6-inside-6_4214_12178)"/>
</svg>
