<svg width="19" height="24" viewBox="0 0 19 24" fill="none" xmlns="http://www.w3.org/2000/svg">
<path d="M4.69165 5.39894C4.58568 3.70597 5.08243 2.26627 6.35409 1.15317C7.2416 0.380004 8.28145 -0.00658052 9.45377 8.47318e-05C10.8778 0.00674999 12.0766 0.553301 13.0303 1.62641C13.9774 2.69285 14.3086 3.96591 14.2159 5.39894C14.8186 5.39894 15.3882 5.39228 15.9578 5.39894C17.1566 5.41894 18.1633 6.3654 18.2561 7.56515C18.3024 8.11836 18.3223 8.67825 18.3488 9.23813C18.4813 11.9775 18.6071 14.7103 18.7329 17.4497C18.7925 18.7894 18.8654 20.1292 18.9118 21.4689C18.9647 22.9019 17.9183 23.995 16.4877 23.995C11.7984 24.0017 7.11576 24.0017 2.4265 23.995C1.0025 23.995 -0.0572139 22.8952 0.00239529 21.4689C0.121614 18.6295 0.260701 15.7967 0.393166 12.9573C0.466022 11.3777 0.532255 9.79801 0.611734 8.21168C0.62498 7.87842 0.638227 7.54515 0.711082 7.21856C0.942896 6.17211 1.89002 5.41227 2.94974 5.39894C3.51934 5.39228 4.08231 5.39894 4.69165 5.39894ZM9.46039 22.402C11.7984 22.402 14.1298 22.402 16.4678 22.402C17.0109 22.402 17.3354 22.0621 17.3222 21.5222C17.3156 21.2489 17.3023 20.9756 17.2891 20.6957C17.1632 17.9963 17.0374 15.3035 16.9115 12.6041C16.8387 11.0044 16.7658 9.41142 16.6864 7.81176C16.6532 7.23855 16.3353 6.95861 15.7657 6.95861C14.547 6.96528 13.3284 6.97194 12.1163 6.97194C9.11598 6.97861 6.12227 6.98527 3.12194 6.99194C2.57221 6.99194 2.26754 7.26521 2.23443 7.81843C2.19469 8.47829 2.17482 9.13148 2.1417 9.79134C1.96288 13.6705 1.77742 17.5497 1.5986 21.4222C1.56548 22.0754 1.87015 22.3887 2.53247 22.3887C4.83736 22.402 7.14888 22.402 9.46039 22.402ZM12.6263 5.39228C12.7389 3.93258 12.2951 2.75284 11.0169 2.02632C9.85116 1.36646 8.67222 1.43978 7.58601 2.22628C6.51967 2.99945 6.17526 4.09922 6.29448 5.39228C8.40729 5.39228 10.5069 5.39228 12.6263 5.39228Z" fill="primaryColor"/>
<path d="M9.47372 13.4573C7.24831 13.4573 5.35406 11.9642 4.81758 9.79804C4.68511 9.25815 4.90368 8.81824 5.36069 8.7116C5.85081 8.59829 6.23495 8.8649 6.37404 9.41145C6.70521 10.7245 7.75168 11.6976 8.99023 11.8576C10.3811 12.0309 11.6395 11.4044 12.2687 10.198C12.4078 9.93801 12.4939 9.64473 12.5734 9.35813C12.7191 8.8649 13.1165 8.59829 13.5868 8.71827C14.0173 8.82491 14.2491 9.25815 14.1431 9.73805C13.6464 11.9309 11.7322 13.4573 9.47372 13.4573Z" fill="primaryColor"/>
</svg>
