<svg width="17" height="17" viewBox="0 0 17 17" fill="none" xmlns="http://www.w3.org/2000/svg">
  <path d="M14.4999 8.77957C14.5035 9.24044 14.3577 9.92713 14.0804 10.5723C13.9097 10.9687 13.5897 11.107 13.2981 10.9134C13.0137 10.7244 12.9141 10.2866 13.0813 9.88565C13.3693 9.19435 13.4475 8.47539 13.2768 7.71957C13.2235 7.49374 13.1346 7.28174 13.0599 7.06513C12.8999 6.60887 13.0848 6.11574 13.4617 6.01435C13.6999 5.94983 13.9417 6.10652 14.0768 6.4107C14.3577 7.06052 14.4999 7.74722 14.4999 8.77957Z" fill="primaryColor"/>
  <path d="M17 8.6426C16.97 10.5399 16.3365 12.3024 15.0584 13.7654C14.8072 14.0563 14.4474 14.0774 14.2 13.8244C13.9451 13.563 13.9301 13.1583 14.185 12.8505C14.6573 12.2855 15.0584 11.6699 15.3357 10.9574C15.6731 10.0846 15.823 9.17385 15.7855 8.22097C15.7406 7.1163 15.4594 6.09173 14.9122 5.17258C14.691 4.80154 14.4174 4.47267 14.1625 4.12693C14.0313 3.94563 13.9676 3.74747 14.0163 3.51978C14.1288 2.99696 14.6798 2.82409 15.0284 3.20778C15.422 3.64206 15.7593 4.12693 16.0442 4.65819C16.6814 5.84297 16.9888 7.12473 17 8.6426Z" fill="primaryColor"/>
  <path d="M0.00414807 7.37078C0.0995478 7.06311 0.157618 6.73465 0.302791 6.44777C0.763198 5.54139 1.52225 5.05494 2.53017 4.98842C2.90762 4.96347 3.29336 4.9801 3.67081 4.98426C3.77866 4.98426 3.84917 4.95516 3.92383 4.872C5.1184 3.47917 6.30882 2.08219 7.51169 0.697676C8.05505 0.0781797 8.75189 -0.142178 9.54412 0.0906526C10.3695 0.335957 10.859 0.905561 10.9793 1.77036C10.9917 1.8743 11 1.97825 11 2.08635C11 5.25451 11 8.42683 11 11.595C11 11.9858 10.8258 12.2394 10.5023 12.3226C10.1082 12.4265 9.71833 12.1521 9.67685 11.7488C9.66855 11.6781 9.6727 11.6033 9.6727 11.5326C9.6727 8.38526 9.6727 5.23788 9.6727 2.0905C9.6727 1.66226 9.46116 1.39617 9.07956 1.34212C8.83899 1.30886 8.64819 1.40033 8.49472 1.57911C7.25038 3.03014 5.99774 4.47702 4.76169 5.93221C4.53356 6.19831 4.28469 6.33135 3.93213 6.31472C3.51735 6.29393 3.10256 6.30641 2.69193 6.31057C1.96192 6.31888 1.41026 6.78454 1.35634 7.51214C1.31071 8.16074 1.30656 8.81766 1.35219 9.46626C1.40611 10.2105 1.96192 10.6803 2.70852 10.6886C3.13989 10.6928 3.57127 10.7011 3.99849 10.6845C4.30128 10.6761 4.52112 10.7884 4.71606 11.0171C5.96041 12.4764 7.21305 13.9275 8.46154 15.3827C8.68552 15.6446 8.93439 15.7319 9.22474 15.628C9.51923 15.5199 9.66026 15.2953 9.67685 14.9794C9.69759 14.5885 10.0045 14.3224 10.382 14.3432C10.7428 14.364 11.0083 14.6717 10.9959 15.0542C10.9627 16.0313 10.2866 16.8004 9.31599 16.9709C9.2911 16.9751 9.26621 16.9917 9.24133 17C9.07541 17 8.9095 17 8.74359 17C8.73115 16.9917 8.7187 16.9792 8.70211 16.9751C8.18778 16.8961 7.7813 16.6341 7.44532 16.2433C6.26735 14.8671 5.08522 13.4951 3.90309 12.123C3.85332 12.069 3.75792 12.0274 3.68326 12.0232C3.30166 12.0108 2.92006 12.0357 2.54261 12.0108C1.50566 11.9442 0.734163 11.4412 0.273756 10.5057C0.141026 10.2354 0.0871041 9.9236 0 9.62841C0.00414781 8.87586 0.00414807 8.12332 0.00414807 7.37078Z" fill="primaryColor"/>
</svg>
