<svg width="16" height="16" viewBox="0 0 16 16" fill="none" xmlns="http://www.w3.org/2000/svg">
  <path d="M5.49997 12.9999C4.67216 12.9999 4 12.3175 4 11.4929C4.00708 10.6683 4.68631 9.99295 5.51412 10.0001C6.32779 10.0072 6.99287 10.6754 6.99994 11.4929C7.00702 12.3317 6.33486 13.0071 5.49997 12.9999ZM6.17213 11.5C6.17213 11.1232 5.86789 10.8247 5.49997 10.8247C5.12498 10.8247 4.83489 11.1303 4.83489 11.5071C4.83489 11.8839 5.13913 12.1824 5.50705 12.1824C5.87496 12.1824 6.17213 11.8768 6.17213 11.5Z" fill="primaryColor"/>
  <path d="M4.00651 6C5.11689 6 6 6.88958 6 7.99344C6 9.10379 5.09092 10.0128 3.98703 9.99986C2.88964 9.99337 1.99354 9.08431 2.00004 7.98694C2.00653 6.88958 2.90263 6 4.00651 6ZM4.0195 6.98048C3.44158 6.97399 2.98055 7.42852 2.97405 7.99993C2.97405 8.55835 3.42859 9.01938 3.98703 9.03236C4.54547 9.04535 5.013 8.59082 5.02598 8.0324C5.03248 7.44151 4.59092 6.98698 4.0195 6.98048Z" fill="primaryColor"/>
  <path d="M7.5 2.00003C8.88522 2.00003 10 3.1148 10 4.50001C10 5.87863 8.87203 7 7.5 7C6.12797 7 5 5.86544 5 4.49342C5 3.1082 6.12137 1.99343 7.5 2.00003ZM7.51319 2.98947C6.67546 2.98287 5.99604 3.6491 5.98945 4.48023C5.98285 5.31795 6.66227 6.01056 7.5 6.01056C8.32454 6.01056 9.00396 5.33114 9.01055 4.50001C9.01055 3.66229 8.34433 2.98947 7.51319 2.98947Z" fill="primaryColor"/>
  <path d="M9.47028 13.9293C9.42741 13.699 9.39679 13.4629 9.32942 13.2386C9.0722 12.3354 9.42741 11.5089 10.2664 11.0249C10.3828 10.9599 10.4992 10.8537 10.5665 10.7415C11.7853 8.68716 12.9979 6.63282 14.2044 4.57258C14.3391 4.34235 14.5045 4.14164 14.7739 4.05309C15.123 3.94093 15.4415 4.00586 15.7109 4.2538C15.9988 4.51945 16.0661 4.84413 15.9375 5.21013C15.5946 6.20188 15.2577 7.19363 14.9025 8.18538C14.4432 9.46639 13.9594 10.7356 13.4939 12.0166C13.4694 12.0874 13.445 12.176 13.4633 12.2468C13.6716 12.9966 13.4511 13.6459 12.9611 14.2244C12.4651 14.803 11.8649 15.2516 11.1238 15.5054C10.6278 15.6766 10.1195 15.8183 9.61727 15.9718C9.40904 16.0367 9.23756 15.9895 9.10282 15.8301C8.96809 15.6707 8.97421 15.4936 9.0722 15.3106C9.29268 14.8797 9.43966 14.4251 9.47028 13.9293ZM10.2603 14.8797C10.6094 14.738 10.9401 14.6377 11.2341 14.4724C11.7179 14.2126 12.1405 13.8643 12.4283 13.398C12.7958 12.8076 12.6304 12.176 12.0302 11.8041C11.6015 11.5384 11.032 11.5562 10.6278 11.8454C10.1929 12.1583 10.1011 12.5184 10.2358 13.0792C10.3154 13.3921 10.3399 13.7168 10.3461 14.0414C10.3583 14.3012 10.2971 14.5668 10.2603 14.8797ZM15.0189 5.11568C14.9944 5.10387 14.9699 5.09797 14.9454 5.08616C13.8185 6.96341 12.6978 8.84065 11.5954 10.6825C12.0425 10.8714 12.4344 11.0367 12.857 11.2138C13.5674 9.20665 14.2901 7.16412 15.0189 5.11568Z" fill="primaryColor"/>
  <path d="M0 8.14365C0.0243086 5.94053 0.504403 4.25266 1.67122 2.79576C3.12366 0.983518 5.01365 -0.0232806 7.41412 0.000408781C9.56544 0.0240982 11.3035 1.30333 11.8444 3.24586C12.3305 5.0048 11.6621 6.74597 10.0577 7.81792C9.58974 8.1318 9.08534 8.39238 8.59309 8.67073C7.86991 9.07938 7.6329 9.58278 7.87599 10.3645C8.01576 10.8146 8.21631 11.247 8.41078 11.6793C8.67209 12.2478 8.79972 12.8401 8.63563 13.4501C8.39255 14.3384 7.71191 14.753 6.84287 14.9188C5.46336 15.1853 4.24793 14.7767 3.17227 13.9712C1.08781 12.4137 0.0668487 10.3171 0 8.14365ZM0.91765 7.76461C0.91765 9.2985 1.40382 10.6843 2.3397 11.9162C3.01427 12.8045 3.84076 13.5271 4.92249 13.9179C5.57882 14.1548 6.24123 14.1726 6.9158 13.989C7.53567 13.8173 7.82737 13.4264 7.77268 12.8045C7.74837 12.544 7.65721 12.2893 7.55998 12.0406C7.39589 11.6023 7.18319 11.1818 7.03126 10.7436C6.87326 10.2935 6.79426 9.81967 6.93403 9.34588C7.10419 8.7418 7.48097 8.27986 8.03399 7.96005C8.5384 7.66986 9.05495 7.40335 9.54113 7.08947C11.2245 5.99383 11.3643 4.2112 10.7748 2.94974C10.1245 1.55206 8.92126 0.936139 7.40197 0.894683C5.43905 0.841382 3.85899 1.65274 2.6071 3.08595C1.42813 4.42441 0.941959 6.01752 0.91765 7.76461Z" fill="primaryColor"/>
</svg>
